# xmcd CD database file
# Copyright (C) 1993-1998 Ti Kan
#
# Track frame offsets:
#  150
#  18420
#  41602
#  62137
#  79870
#  97832
#  122275
#  126057
#  144127
#  162220
#  183020
#  200402
#
# Disc length: 3018 seconds
#
# Revision: 1
# Processed by: cddbd v1.4b41PL1 Copyright (c) Steve Scherf et al.
# Submitted via: CDWizzard Release:4.60
#
DISCID=8c0bc80c
DTITLE=Selections - Selections
DYEAR=1900
DGENRE=
TTITLE0=Great things
TTITLE1=Someone who loves me
TTITLE2=Keep the faith
TTITLE3=Just when i need him
TTITLE4=You don't know like i know
TTITLE5=Together forerer (inst.)
TTITLE6=Show you how
TTITLE7=In my prayer
TTITLE8=Overcomer
TTITLE9=I apologize
TTITLE10=Thinking of you
TTITLE11=Together forerer
EXTD=
EXTT0=
EXTT1=
EXTT2=
EXTT3=
EXTT4=
EXTT5=
EXTT6=
EXTT7=
EXTT8=
EXTT9=
EXTT10=
EXTT11=
PLAYORDER=
